<svg xmlns="http://www.w3.org/2000/svg" width="18" height="16" viewBox="0 0 18 16"><g><g><path fill="#4a4a4a" d="M14.222 10.667h-1.778v1.777h1.778zm0-3.556h-1.778V8.89h1.778zM16 14.222H8.889v-1.778h1.778v-1.777H8.889V8.889h1.778V7.11H8.889V5.333H16zM7.111 3.556H5.333V1.778h1.778zm0 3.555H5.333V5.333h1.778zm0 3.556H5.333V8.889h1.778zm0 3.555H5.333v-1.778h1.778zM3.556 3.556H1.778V1.778h1.778zm0 3.555H1.778V5.333h1.778zm0 3.556H1.778V8.889h1.778zm0 3.555H1.778v-1.778h1.778zM8.889 3.556V0H0v16h17.778V3.556z"/></g></g></svg>