<svg xmlns="http://www.w3.org/2000/svg" width="14" height="16" viewBox="0 0 14 16"><g><g><path fill="#4a4a4a" d="M12 1.75C12 .922 11.375 0 11 0c0 1.281-1 1.031-1 2 0 .555.445 1 1 1 .555 0 1-.422 1-1.25zm-4 0C8 .922 7.375 0 7 0c0 1.281-1 1.031-1 2 0 .555.445 1 1 1 .555 0 1-.422 1-1.25zm-4 0C4 .922 3.375 0 3 0c0 1.281-1 1.031-1 2 0 .555.445 1 1 1 .555 0 1-.422 1-1.25zM14 13c-1.351 0-1.47-1-2.328-1-.875 0-.981 1-2.336 1C7.975 13 7.88 12 7 12c-.853 0-.99 1-2.328 1-1.36 0-1.463-1-2.336-1-.875 0-.981 1-2.336 1v3h14zm0-3.5A1.5 1.5 0 0 0 12.5 8H12V3.5h-2V8H8V3.5H6V8H4V3.5H2V8h-.5A1.5 1.5 0 0 0 0 9.5V12c.878 0 .975-1 2.336-1 1.36 0 1.456 1 2.336 1 .852 0 .99-1 2.328-1 1.353 0 1.47 1 2.336 1 .873 0 .979-1 2.336-1 1.351 0 1.452 1 2.328 1z"/></g></g></svg>