<svg xmlns="http://www.w3.org/2000/svg" width="17" height="16" viewBox="0 0 17 16"><g><g><path fill="#fff" d="M15.367 2.897L13.97 1.5 8.433 7.037 2.897 1.5 1.5 2.897l5.537 5.536L1.5 13.97l1.397 1.397L8.433 9.83l5.537 5.537 1.397-1.397L9.83 8.433z"/><path fill="none" stroke="#fff" stroke-linejoin="round" stroke-miterlimit="20" d="M15.367 2.897v0L13.97 1.5v0L8.433 7.037v0L2.897 1.5v0L1.5 2.897v0l5.537 5.536v0L1.5 13.97v0l1.397 1.397v0L8.433 9.83v0l5.537 5.537v0l1.397-1.397v0L9.83 8.433v0z"/></g></g></svg>