<svg xmlns="http://www.w3.org/2000/svg" width="16" height="16" viewBox="0 0 16 16"><g><g><path fill="#4a4a4a" d="M13.452 8.589a.774.774 0 0 1-.457-.322l-.58-.87a.773.773 0 0 1 0-.859l.632-.947a.773.773 0 0 1 .298-.263l.419-.21A6.4 6.4 0 0 1 14.452 8c0 .28-.024.554-.06.824zm-2.797 2.946l-.365.364a.77.77 0 0 0-.2.346c-.048.182-.087.367-.153.544L9.376 14.3A6.447 6.447 0 0 1 8 14.452v-.884c.055-.407-.246-1.17-.73-1.653a1.032 1.032 0 0 1-.302-.73v-1.032c0-.376-.203-.721-.531-.903a53.219 53.219 0 0 0-1.575-.842 4.65 4.65 0 0 1-1.02-.702l-.027-.023a3.703 3.703 0 0 1-.582-.669c-.303-.444-.796-1.175-1.116-1.65a6.487 6.487 0 0 1 3.33-3.286l.774.387a.516.516 0 0 0 .747-.461v-.365c.257-.042.52-.068.787-.078l.912.913a.516.516 0 0 1 0 .73l-.15.15-.334.334c-.101.101-.101.265 0 .365l.15.152c.101.1.101.264 0 .364l-.257.258a.258.258 0 0 1-.183.076h-.29a.258.258 0 0 0-.18.073l-.32.311a.258.258 0 0 0-.05.3l.502 1.007a.258.258 0 0 1-.23.373h-.182a.258.258 0 0 1-.17-.063l-.299-.26a.517.517 0 0 0-.501-.1l-1.006.335a.385.385 0 0 0-.05.711l.357.179c.304.152.639.23.978.23.34 0 .729.881 1.032 1.033h2.153c.274 0 .537.109.73.302l.442.442a.984.984 0 0 1 .288.696c0 .399-.16.782-.443 1.063zM8 0a8 8 0 1 0 0 16A8 8 0 0 0 8 0z"/></g></g></svg>