<svg xmlns="http://www.w3.org/2000/svg" width="19" height="16" viewBox="0 0 19 16"><g><g><path fill="#4a4a4a" d="M14.429 12.429H7.286A.429.429 0 0 1 6.857 12v-1.143c0-.237.192-.428.429-.428h7.143c.236 0 .428.191.428.428V12a.429.429 0 0 1-.428.429zm0-3.429H7.286a.429.429 0 0 1-.429-.429V7.43c0-.237.192-.429.429-.429h7.143c.236 0 .428.192.428.429V8.57A.429.429 0 0 1 14.43 9zm0-3.429H7.286a.429.429 0 0 1-.429-.428V4c0-.237.192-.429.429-.429h7.143c.236 0 .428.192.428.429v1.143a.429.429 0 0 1-.428.428zM6 11.43a1.429 1.429 0 1 1-2.857 0 1.429 1.429 0 0 1 2.857 0zM6 8a1.429 1.429 0 1 1-2.857 0A1.429 1.429 0 0 1 6 8zm0-3.429a1.429 1.429 0 1 1-2.857 0 1.429 1.429 0 0 1 2.857 0zm12.286 9.715V1.714C18.286.767 17.518 0 16.57 0H1.714C.768 0 0 .767 0 1.714v12.572C0 15.232.768 16 1.714 16h14.857c.947 0 1.715-.768 1.715-1.714z"/></g></g></svg>