<svg xmlns="http://www.w3.org/2000/svg" width="13" height="16" viewBox="0 0 13 16"><g><g><path fill="#4a4a4a" d="M8.457 5.333H3.733V3.81a2.364 2.364 0 0 1 2.362-2.362A2.364 2.364 0 0 1 8.457 3.81zM6.095 12.19a1.528 1.528 0 0 1-1.524-1.523c0-.838.686-1.524 1.524-1.524s1.524.686 1.524 1.524-.686 1.523-1.524 1.523zm3.81-6.857V3.81A3.81 3.81 0 0 0 6.095 0a3.81 3.81 0 0 0-3.81 3.81v1.523h-.761C.686 5.333 0 6.02 0 6.857v7.62C0 15.313.686 16 1.524 16h9.143c.838 0 1.523-.686 1.523-1.524V6.857c0-.838-.685-1.524-1.523-1.524z"/></g></g></svg>