<svg xmlns="http://www.w3.org/2000/svg" width="26" height="16" viewBox="0 0 26 16"><g><g><path fill="#4a4a4a" d="M25.143 13.143V16h-6.857v-2.857c0-1.692-.926-2.983-2.252-3.943.4-.034.777-.057 1.109-.057 2.663 0 8 1.337 8 4zm-9.143 0V16H0v-2.857c0-2.663 5.337-4 8-4 2.663 0 8 1.337 8 4zM4.571 3.429A3.424 3.424 0 0 1 8 0a3.414 3.414 0 0 1 3.417 3.429A3.414 3.414 0 0 1 8 6.857 3.424 3.424 0 0 1 4.571 3.43zm9.143 0A3.424 3.424 0 0 1 17.143 0a3.414 3.414 0 0 1 3.417 3.429 3.414 3.414 0 0 1-3.417 3.428 3.424 3.424 0 0 1-3.429-3.428z"/></g></g></svg>