<svg xmlns="http://www.w3.org/2000/svg" width="20" height="16" viewBox="0 0 20 16"><g><g><path fill="#4a4a4a" d="M17.675 3.987c.013.175.013.35.013.525C17.688 9.85 13.625 16 6.2 16A11.41 11.41 0 0 1 0 14.187c.325.038.637.05.975.05a8.086 8.086 0 0 0 5.013-1.725 4.045 4.045 0 0 1-3.776-2.8c.25.038.5.063.763.063.363 0 .725-.05 1.063-.138A4.038 4.038 0 0 1 .8 5.675v-.05c.537.3 1.163.487 1.825.512a4.035 4.035 0 0 1-1.8-3.362c0-.75.2-1.438.55-2.038A11.476 11.476 0 0 0 9.7 4.962c-.063-.3-.1-.612-.1-.925C9.6 1.812 11.4 0 13.637 0c1.163 0 2.213.487 2.95 1.275A7.949 7.949 0 0 0 19.15.3a4.027 4.027 0 0 1-1.775 2.225A8.094 8.094 0 0 0 19.7 1.9a8.679 8.679 0 0 1-2.025 2.087z"/></g></g></svg>