<svg xmlns="http://www.w3.org/2000/svg" width="23" height="16" viewBox="0 0 23 16">
    <g>
        <g>
            <path fill="#4a4a4a" d="M9.165 11.437V4.573l5.977 3.437zm13.25-8.966A2.87 2.87 0 0 0 20.424.478C18.64 0 11.457 0 11.457 0S4.293-.01 2.49.478A2.87 2.87 0 0 0 .498 2.471 29.818 29.818 0 0 0 0 8.01a29.817 29.817 0 0 0 .498 5.518 2.87 2.87 0 0 0 1.993 1.992c1.782.48 8.966.48 8.966.48s7.163 0 8.966-.48a2.87 2.87 0 0 0 1.993-1.992c.33-1.821.49-3.669.477-5.519a29.817 29.817 0 0 0-.477-5.54z" />
        </g>
    </g>
</svg>