<svg id="google-play-badge" xmlns="http://www.w3.org/2000/svg" xmlns:xlink="http://www.w3.org/1999/xlink" width="168" height="52.5" viewBox="0 0 168 52.5">
  <defs>
    <linearGradient id="linear-gradient" x1="0.295" y1="-0.061" x2="0.551" y2="0.922" gradientUnits="objectBoundingBox">
      <stop offset="0" stop-color="#006884"/>
      <stop offset="1" stop-color="#8ad1d0"/>
    </linearGradient>
    <linearGradient id="linear-gradient-2" x1="-0.075" y1="0.158" x2="0.915" y2="0.863" gradientUnits="objectBoundingBox">
      <stop offset="0" stop-color="#24bbb6"/>
      <stop offset="1" stop-color="#dbe692"/>
    </linearGradient>
    <linearGradient id="linear-gradient-3" x1="0.499" y1="1.058" x2="0.499" y2="-0.031" gradientUnits="objectBoundingBox">
      <stop offset="0" stop-color="#fcc072"/>
      <stop offset="1" stop-color="#f58a5b"/>
    </linearGradient>
    <linearGradient id="linear-gradient-4" x1="0.112" y1="1.178" x2="0.904" y2="0.121" gradientUnits="objectBoundingBox">
      <stop offset="0" stop-color="#712b8f"/>
      <stop offset="1" stop-color="#ea1d27"/>
    </linearGradient>
  </defs>
  <path id="Path_882" data-name="Path 882" d="M348.25,71H190.75a5.265,5.265,0,0,1-5.25-5.25v-42a5.265,5.265,0,0,1,5.25-5.25h157.5a5.265,5.265,0,0,1,5.25,5.25v42A5.265,5.265,0,0,1,348.25,71Z" transform="translate(-185.5 -18.5)"/>
  <path id="Path_883" data-name="Path 883" d="M195.3,41.725V27.944a1.438,1.438,0,0,1,1.313-1.444,1.96,1.96,0,0,1,1.313.394l25.331,13.913a1.094,1.094,0,0,1,0,2.1L197.925,56.819a2.578,2.578,0,0,1-1.312.394,1.438,1.438,0,0,1-1.312-1.444Z" transform="translate(-182.437 -16)" fill-rule="evenodd" fill="url(#linear-gradient)"/>
  <path id="Path_884" data-name="Path 884" d="M211.456,41.856,196.1,26.5h.262a1.959,1.959,0,0,1,1.313.394l18.637,10.237Z" transform="translate(-182.188 -16)" fill-rule="evenodd" fill="url(#linear-gradient-2)"/>
  <path id="Path_885" data-name="Path 885" d="M212.525,43.981,207.8,39.256l4.856-4.856,6.694,3.675a1.094,1.094,0,0,1,0,2.1Z" transform="translate(-178.531 -13.531)" fill-rule="evenodd" fill="url(#linear-gradient-3)"/>
  <path id="Path_886" data-name="Path 886" d="M196.2,53.325h0L211.425,38.1l4.725,4.725L197.644,52.931a2.111,2.111,0,0,1-1.444.394Z" transform="translate(-182.156 -12.375)" fill-rule="evenodd" fill="url(#linear-gradient-4)"/>
  <path id="Path_887" data-name="Path 887" d="M266.8,57.369a6.286,6.286,0,0,1-1.444-1.969l2.1-.919a12.089,12.089,0,0,0,.656,1.05,3.241,3.241,0,0,0,2.1,1.05,3,3,0,0,0,2.231-1.05A4.067,4.067,0,0,0,273.1,53.3v-.787c-1.575,1.969-4.856,1.706-6.694-.394a5.815,5.815,0,0,1,0-7.744c1.969-1.969,4.856-2.231,6.563-.394h0v-.919H275.2v9.844a5.686,5.686,0,0,1-2.1,4.856,4.844,4.844,0,0,1-3.019.919,6.022,6.022,0,0,1-3.281-1.312Zm54.994.525h0l2.231-5.25-3.937-9.056h2.231l2.756,6.431,2.756-6.431h2.231l-6.038,14.306h-2.231Zm-10.631-4.987h0a3.465,3.465,0,0,1-.919-2.494,2.981,2.981,0,0,1,.788-2.1A5.062,5.062,0,0,1,314.7,47a4.494,4.494,0,0,1,2.362.525,2.229,2.229,0,0,0-2.362-2.231,2.426,2.426,0,0,0-2.231,1.444L310.5,45.95a4.168,4.168,0,0,1,4.069-2.625,4.452,4.452,0,0,1,3.412,1.313,4.841,4.841,0,0,1,1.05,3.412v5.513H316.8v-.919a4.088,4.088,0,0,1-1.181.919,4.192,4.192,0,0,1-1.837.394,5.067,5.067,0,0,1-2.625-1.05ZM241.2,48.181h0a5.45,5.45,0,0,1,5.513-5.512,5.536,5.536,0,0,1,5.512,5.512,5.512,5.512,0,1,1-11.025,0Zm11.813,0h0a5.45,5.45,0,0,1,5.512-5.512,5.536,5.536,0,0,1,5.513,5.512,5.45,5.45,0,0,1-5.513,5.513,5.536,5.536,0,0,1-5.512-5.513Zm-26.644,2.888h0a8.638,8.638,0,0,1,.131-12.075,8.333,8.333,0,0,1,6.038-2.494,8.144,8.144,0,0,1,5.775,2.362l-1.575,1.706a5.864,5.864,0,0,0-8.4.131,6.341,6.341,0,0,0,0,8.794,5.952,5.952,0,0,0,8.663.131,4.723,4.723,0,0,0,1.181-2.888h-5.513V44.375h7.744a8.073,8.073,0,0,1,.131,1.837,7.56,7.56,0,0,1-2.1,5.25,8.047,8.047,0,0,1-5.644,2.231,9.746,9.746,0,0,1-6.431-2.625Zm55.519.919h0a5.988,5.988,0,0,1,0-7.875,4.774,4.774,0,0,1,7.087,0,7.78,7.78,0,0,1,1.444,2.494L283.2,49.625a2.8,2.8,0,0,0,2.625,1.706,2.973,2.973,0,0,0,2.756-1.575l1.969,1.313h0a3.482,3.482,0,0,0-.656.787,5.748,5.748,0,0,1-8.006.131Zm13.65,1.575h0V38.994h4.725c2.756,0,4.988,1.969,4.988,4.331a4.4,4.4,0,0,1-4.463,4.331H297.9v5.775h-2.363Zm11.025,0h0V38.994H308.8V53.562ZM276.9,53.3h0V37.025h2.363V53.3H276.9Zm40.031-4.069h0a3.578,3.578,0,0,0-2.1-.525c-1.575,0-2.494.788-2.494,1.706a1.65,1.65,0,0,0,1.838,1.444,2.743,2.743,0,0,0,2.756-2.625Zm-67.2-1.05h0a3.029,3.029,0,1,0-3.019,3.281,3.193,3.193,0,0,0,3.019-3.281Zm11.813,0h0a3.029,3.029,0,1,0-3.019,3.281,3.1,3.1,0,0,0,3.019-3.281Zm11.681.919h0a.482.482,0,0,1,.131-.394h0V47.525c0-.131-.131-.394-.131-.525a3.045,3.045,0,0,0-2.756-2.231,3.187,3.187,0,0,0-2.888,3.281,3.118,3.118,0,0,0,3.019,3.281c1.05.131,2.1-.787,2.625-2.231Zm9.581-1.181h0l4.856-2.1a2.19,2.19,0,0,0-1.969-1.181,3.182,3.182,0,0,0-2.888,3.281Zm20.081-4.463h0a2.284,2.284,0,0,0-2.494-2.231H297.77v4.594h2.756A2.353,2.353,0,0,0,302.889,43.456Z" transform="translate(-173.477 -12.875)" fill="#fff" fill-rule="evenodd"/>
  <path id="Path_888" data-name="Path 888" d="M299.831,50.831H299.7V50.7h0v.131h.131Z" transform="translate(-149.812 -8.437)" fill="#fff" fill-rule="evenodd"/>
  <path id="Path_889" data-name="Path 889" d="M299.8,50.831Zm0-.131Z" transform="translate(-149.781 -8.437)" fill="#fff" fill-rule="evenodd"/>
  <path id="Path_890" data-name="Path 890" d="M299.8,50.831h0V50.7h0v.131Z" transform="translate(-149.781 -8.437)" fill="#fff" fill-rule="evenodd"/>
  <path id="Path_891" data-name="Path 891" d="M299.8,50.831Zm0-.131Z" transform="translate(-149.781 -8.437)" fill="#fff" fill-rule="evenodd"/>
  <path id="Path_892" data-name="Path 892" d="M299.8,50.7h0v.131h0V50.7Z" transform="translate(-149.781 -8.437)" fill="#fff" fill-rule="evenodd"/>
  <path id="Path_893" data-name="Path 893" d="M299.8,50.831h0V50.7h0v.131Z" transform="translate(-149.781 -8.437)" fill="#fff" fill-rule="evenodd"/>
  <path id="Path_894" data-name="Path 894" d="M299.8,50.823Zm0,0Z" transform="translate(-149.781 -8.43)" fill="#fff" fill-rule="evenodd"/>
  <path id="Path_895" data-name="Path 895" d="M299.9,50.831Zm0-.131Zm0,.131Z" transform="translate(-149.75 -8.437)" fill="#fff" fill-rule="evenodd"/>
  <path id="Path_896" data-name="Path 896" d="M299.9,50.7h0v.131h0Z" transform="translate(-149.75 -8.437)" fill="#fff" fill-rule="evenodd"/>
  <path id="Path_897" data-name="Path 897" d="M299.9,50.831h0V50.7h0v.131Z" transform="translate(-149.75 -8.437)" fill="#fff" fill-rule="evenodd"/>
  <path id="Path_898" data-name="Path 898" d="M299.9,50.831Zm0-.131Z" transform="translate(-149.75 -8.437)" fill="#fff" fill-rule="evenodd"/>
  <path id="Path_899" data-name="Path 899" d="M299.9,50.823Z" transform="translate(-149.75 -8.43)" fill="#fff" fill-rule="evenodd"/>
  <path id="Path_900" data-name="Path 900" d="M300.023,50.831Zm0-.131h0c0,.131-.131.131,0,0Z" transform="translate(-149.742 -8.437)" fill="#fff" fill-rule="evenodd"/>
  <path id="Path_901" data-name="Path 901" d="M300,50.831V50.7h0v.131h0V50.7h0v.131h0V50.7h0Z" transform="translate(-149.719 -8.437)" fill="#fff" fill-rule="evenodd"/>
  <path id="Path_902" data-name="Path 902" d="M300,50.831Zm0-.131Z" transform="translate(-149.719 -8.437)" fill="#fff" fill-rule="evenodd"/>
  <path id="Path_903" data-name="Path 903" d="M300,50.823Z" transform="translate(-149.719 -8.43)" fill="#fff" fill-rule="evenodd"/>
  <path id="Path_904" data-name="Path 904" d="M300.131,50.7h0v.131h0V50.7Z" transform="translate(-149.719 -8.437)" fill="#fff" fill-rule="evenodd"/>
  <path id="Path_905" data-name="Path 905" d="M300.1,50.831h0V50.7h0v.131Z" transform="translate(-149.688 -8.437)" fill="#fff" fill-rule="evenodd"/>
  <path id="Path_906" data-name="Path 906" d="M300.1,50.831Zm0-.131Z" transform="translate(-149.688 -8.437)" fill="#fff" fill-rule="evenodd"/>
  <path id="Path_907" data-name="Path 907" d="M224.4,29.506a3.651,3.651,0,0,1,3.806-3.806,3.489,3.489,0,0,1,3.019,1.575l-1.05.656a2.37,2.37,0,0,0-1.969-.919,2.448,2.448,0,0,0-2.494,2.625,2.448,2.448,0,0,0,2.494,2.625,2.588,2.588,0,0,0,1.706-.656V30.425h-2.1V29.244h3.544V32a3.841,3.841,0,0,1-3.019,1.312A3.76,3.76,0,0,1,224.4,29.506Z" transform="translate(-173.344 -16.25)" fill="#fff"/>
  <path id="Path_908" data-name="Path 908" d="M230.9,33.15V25.8h4.988v1.181h-3.806v1.837h3.675V30h-3.675v2.1h3.806v1.181L230.9,33.15Z" transform="translate(-171.312 -16.219)" fill="#fff"/>
  <path id="Path_909" data-name="Path 909" d="M238.031,33.15V26.981H235.8V25.8h5.775v1.181h-2.231V33.15h-1.312Z" transform="translate(-169.781 -16.219)" fill="#fff"/>
  <path id="Path_910" data-name="Path 910" d="M243.6,33.15V25.8h1.313v7.35Z" transform="translate(-167.344 -16.219)" fill="#fff"/>
  <path id="Path_911" data-name="Path 911" d="M247.831,33.15V26.981H245.6V25.8h5.775v1.181h-2.231V33.15h-1.313Z" transform="translate(-166.719 -16.219)" fill="#fff"/>
  <path id="Path_912" data-name="Path 912" d="M253.2,29.506a3.806,3.806,0,1,1,7.612,0,3.652,3.652,0,0,1-3.806,3.806A3.727,3.727,0,0,1,253.2,29.506Zm6.169,0a2.38,2.38,0,0,0-2.494-2.625,2.523,2.523,0,0,0-2.494,2.625,2.38,2.38,0,0,0,2.494,2.625A2.446,2.446,0,0,0,259.369,29.506Z" transform="translate(-164.344 -16.25)" fill="#fff"/>
  <path id="Path_913" data-name="Path 913" d="M265.219,33.15l-3.806-5.25v5.25H260.1V25.8h1.313l3.806,5.119V25.8h1.313v7.35Z" transform="translate(-162.188 -16.219)" fill="#fff"/>
</svg>
