<svg width="24" height="25" viewBox="0 0 24 25" fill="none" xmlns="http://www.w3.org/2000/svg">
<path d="M23.4062 10.1512L23.2852 9.63721H12.1192V14.3632H18.7902C18.4197 15.8099 17.5748 17.0907 16.3907 18.0007C15.2066 18.9107 13.7515 19.3975 12.2582 19.3832C10.3056 19.3664 8.43012 18.619 7.0012 17.2882C6.29773 16.5955 5.73785 15.7708 5.35364 14.8613C4.96944 13.9518 4.76845 12.9755 4.7622 11.9882C4.79149 10.0077 5.57883 8.11379 6.9622 6.69621C8.37204 5.36375 10.2445 4.63121 12.1842 4.65321C13.8252 4.67769 15.4022 5.29379 16.6252 6.38822L19.9842 3.04721C17.8112 1.09323 14.9945 0.00846335 12.0722 0.000214768V0.000214768C8.83498 -0.0189572 5.72221 1.24614 3.4162 3.51821C1.22047 5.79342 -0.00451583 8.83329 0.000201203 11.9952C-0.0176909 15.0943 1.15833 18.0812 3.2842 20.3362C4.46833 21.5194 5.8776 22.4532 7.42874 23.0826C8.97988 23.7119 10.6414 24.0239 12.3152 24.0002C13.8282 24.0126 15.3279 23.7166 16.7227 23.1303C18.1176 22.544 19.3784 21.6798 20.4282 20.5902C22.49 18.3238 23.6051 15.3536 23.5442 12.2902C23.5537 11.5747 23.5075 10.8596 23.4062 10.1512V10.1512Z" fill="white"/>
</svg>
