<svg width="16" height="16" viewBox="0 0 16 16" fill="none" xmlns="http://www.w3.org/2000/svg">
<path d="M14.6789 8C14.6791 7.58406 14.8054 7.17796 15.041 6.83521C15.2767 6.49246 15.6106 6.22916 15.9989 6.08C15.7983 5.23946 15.4655 4.43611 15.0129 3.7C14.7493 3.81688 14.4643 3.87783 14.1759 3.879C13.8332 3.87955 13.4957 3.79431 13.1943 3.63106C12.893 3.46781 12.6372 3.23173 12.4504 2.94435C12.2636 2.65696 12.1517 2.3274 12.1249 1.98569C12.0981 1.64399 12.1572 1.30101 12.2969 0.988C11.5627 0.53478 10.761 0.201277 9.92191 0C9.77287 0.388463 9.50952 0.722596 9.16665 0.958292C8.82377 1.19399 8.41748 1.32016 8.00141 1.32016C7.58533 1.32016 7.17904 1.19399 6.83616 0.958292C6.49329 0.722596 6.22995 0.388463 6.08091 0C5.24134 0.201169 4.43903 0.534313 3.70391 0.987C3.84361 1.30008 3.90273 1.64316 3.87587 1.98494C3.84901 2.32673 3.73702 2.65635 3.55011 2.94377C3.36321 3.23118 3.10734 3.46724 2.80582 3.63042C2.50431 3.7936 2.16675 3.87871 1.82391 3.878C1.53539 3.87918 1.24997 3.81849 0.986906 3.7C0.537799 4.43827 0.206174 5.24186 0.00390625 6.082C0.391955 6.23145 0.72563 6.49494 0.960972 6.83776C1.19631 7.18059 1.32228 7.58667 1.32228 8.0025C1.32228 8.41833 1.19631 8.82441 0.960972 9.16724C0.72563 9.51006 0.391955 9.77355 0.00390625 9.923C0.206322 10.7628 0.540821 11.5651 0.994906 12.3C1.37439 12.1323 1.79574 12.0834 2.20354 12.1598C2.61133 12.2361 2.98647 12.4341 3.27962 12.7277C3.57277 13.0212 3.77019 13.3967 3.84592 13.8046C3.92165 14.2125 3.87214 14.6338 3.70391 15.013C4.44002 15.4652 5.2429 15.7983 6.08291 16C6.23193 15.6128 6.49478 15.2798 6.83681 15.045C7.17884 14.8101 7.58401 14.6844 7.99891 14.6844C8.41381 14.6844 8.81897 14.8101 9.161 15.045C9.50303 15.2798 9.76588 15.6128 9.91491 16C10.7552 15.799 11.5582 15.4659 12.2939 15.013C12.1266 14.6337 12.0779 14.2127 12.1541 13.8051C12.2302 13.3976 12.4277 13.0226 12.7207 12.7293C13.0137 12.436 13.3885 12.2381 13.7959 12.1615C14.2033 12.0849 14.6244 12.1332 15.0039 12.3C15.4561 11.5639 15.7892 10.761 15.9909 9.921C15.6048 9.76934 15.2732 9.50505 15.0392 9.16247C14.8052 8.81989 14.6797 8.41486 14.6789 8ZM8.03891 11.328C7.3799 11.328 6.73569 11.1326 6.18775 10.7665C5.6398 10.4003 5.21273 9.87994 4.96054 9.2711C4.70835 8.66226 4.64236 7.9923 4.77093 7.34596C4.8995 6.69961 5.21684 6.10591 5.68283 5.63992C6.14881 5.17393 6.74252 4.85659 7.38887 4.72802C8.03521 4.59946 8.70516 4.66544 9.31401 4.91763C9.92285 5.16982 10.4432 5.5969 10.8094 6.14484C11.1755 6.69278 11.3709 7.33699 11.3709 7.996C11.3704 8.87936 11.0191 9.72635 10.3943 10.3508C9.76947 10.9752 8.92226 11.326 8.03891 11.326V11.328Z" fill="#4A4A4A"/>
</svg>
